<svg width="25" height="25" viewBox="0 0 25 25" fill="none" xmlns="http://www.w3.org/2000/svg">
<path fill-rule="evenodd" clip-rule="evenodd" d="M7.55154 5.68854V7.1677L5.78696 7.31145C5.18074 7.36024 4.60839 7.61088 4.16141 8.0233C3.71443 8.43573 3.41864 8.98611 3.32133 9.58645C3.27828 9.8552 3.23869 10.1243 3.20258 10.3937C3.19448 10.4589 3.20713 10.525 3.23873 10.5826C3.27033 10.6402 3.31928 10.6864 3.37862 10.7146L3.45883 10.7521C9.11404 13.4292 15.8859 13.4292 21.5401 10.7521L21.6203 10.7146C21.6794 10.6862 21.7282 10.64 21.7596 10.5824C21.791 10.5248 21.8035 10.4588 21.7953 10.3937C21.76 10.1241 21.7207 9.85497 21.6776 9.58645C21.5803 8.98611 21.2845 8.43573 20.8375 8.0233C20.3905 7.61088 19.8182 7.36024 19.212 7.31145L17.4474 7.16874V5.68958C17.4475 5.25297 17.2909 4.83082 17.006 4.49991C16.7212 4.169 16.3271 3.95132 15.8953 3.88645L14.6245 3.69583C13.2156 3.48525 11.7833 3.48525 10.3745 3.69583L9.10362 3.88645C8.67204 3.95129 8.27803 4.16883 7.99322 4.49952C7.70841 4.8302 7.55169 5.2521 7.55154 5.68854ZM14.3922 5.24062C13.1373 5.05319 11.8616 5.05319 10.6068 5.24062L9.33592 5.43124C9.27426 5.44047 9.21796 5.47151 9.17724 5.51873C9.13653 5.56594 9.1141 5.62619 9.11404 5.68854V7.05833C11.3691 6.92954 13.6298 6.92954 15.8849 7.05833V5.68854C15.8848 5.62619 15.8624 5.56594 15.8217 5.51873C15.781 5.47151 15.7247 5.44047 15.663 5.43124L14.3922 5.24062Z" fill="#1814F3"/>
<path d="M21.998 12.5729C21.9959 12.5393 21.9857 12.5066 21.9682 12.4777C21.9507 12.4489 21.9265 12.4247 21.8976 12.4073C21.8687 12.3898 21.836 12.3797 21.8023 12.3777C21.7687 12.3757 21.735 12.382 21.7043 12.3958C15.9011 14.9656 9.09904 14.9656 3.29592 12.3958C3.26517 12.382 3.23151 12.3757 3.19782 12.3777C3.16414 12.3797 3.13145 12.3898 3.10255 12.4073C3.07365 12.4247 3.04942 12.4489 3.03193 12.4777C3.01445 12.5066 3.00423 12.5393 3.00217 12.5729C2.89666 14.5672 3.00386 16.567 3.32196 18.5386C3.41905 19.1391 3.71475 19.6897 4.16175 20.1023C4.60874 20.515 5.18121 20.7658 5.78758 20.8146L7.73758 20.9708C10.9074 21.2271 14.0918 21.2271 17.2626 20.9708L19.2126 20.8146C19.819 20.7658 20.3914 20.515 20.8384 20.1023C21.2854 19.6897 21.5811 19.1391 21.6782 18.5386C21.997 16.5646 22.1053 14.5646 21.998 12.574" fill="#1814F3"/>
</svg>
