<svg width="25" height="25" viewBox="0 0 25 25" fill="none" xmlns="http://www.w3.org/2000/svg">
<path fill-rule="evenodd" clip-rule="evenodd" d="M7.55154 5.68848V7.16765L5.78696 7.3114C5.18074 7.36019 4.60839 7.61083 4.16141 8.02325C3.71443 8.43567 3.41864 8.98606 3.32133 9.5864C3.27828 9.85515 3.23869 10.1242 3.20258 10.3937C3.19448 10.4589 3.20713 10.525 3.23873 10.5826C3.27033 10.6402 3.31928 10.6863 3.37862 10.7145L3.45883 10.752C9.11404 13.4291 15.8859 13.4291 21.5401 10.752L21.6203 10.7145C21.6794 10.6862 21.7282 10.6399 21.7596 10.5824C21.791 10.5248 21.8035 10.4588 21.7953 10.3937C21.76 10.124 21.7207 9.85491 21.6776 9.5864C21.5803 8.98606 21.2845 8.43567 20.8375 8.02325C20.3905 7.61083 19.8182 7.36019 19.212 7.3114L17.4474 7.16869V5.68952C17.4475 5.25291 17.2909 4.83076 17.006 4.49986C16.7212 4.16895 16.3271 3.95127 15.8953 3.8864L14.6245 3.69577C13.2156 3.4852 11.7833 3.4852 10.3745 3.69577L9.10362 3.8864C8.67204 3.95124 8.27803 4.16877 7.99322 4.49946C7.70841 4.83015 7.55169 5.25205 7.55154 5.68848ZM14.3922 5.24057C13.1373 5.05314 11.8616 5.05314 10.6068 5.24057L9.33592 5.43119C9.27426 5.44042 9.21796 5.47146 9.17724 5.51867C9.13653 5.56589 9.1141 5.62614 9.11404 5.68848V7.05827C11.3691 6.92948 13.6298 6.92948 15.8849 7.05827V5.68848C15.8848 5.62614 15.8624 5.56589 15.8217 5.51867C15.781 5.47146 15.7247 5.44042 15.663 5.43119L14.3922 5.24057Z" fill="#B1B1B1"/>
<path d="M21.998 12.573C21.9959 12.5393 21.9857 12.5067 21.9682 12.4778C21.9507 12.449 21.9265 12.4248 21.8976 12.4074C21.8687 12.3899 21.836 12.3798 21.8023 12.3778C21.7687 12.3758 21.735 12.382 21.7043 12.3959C15.9011 14.9657 9.09904 14.9657 3.29592 12.3959C3.26517 12.382 3.23151 12.3758 3.19782 12.3778C3.16414 12.3798 3.13145 12.3899 3.10255 12.4074C3.07365 12.4248 3.04942 12.449 3.03193 12.4778C3.01445 12.5067 3.00423 12.5393 3.00217 12.573C2.89666 14.5673 3.00386 16.5671 3.32196 18.5386C3.41905 19.1392 3.71475 19.6898 4.16175 20.1024C4.60874 20.5151 5.18121 20.7658 5.78758 20.8147L7.73758 20.9709C10.9074 21.2272 14.0918 21.2272 17.2626 20.9709L19.2126 20.8147C19.819 20.7658 20.3914 20.5151 20.8384 20.1024C21.2854 19.6898 21.5811 19.1392 21.6782 18.5386C21.997 16.5647 22.1053 14.5647 21.998 12.5741" fill="#B1B1B1"/>
</svg>
