<svg width="25" height="25" viewBox="0 0 25 25" fill="none" xmlns="http://www.w3.org/2000/svg">
<path d="M21.0938 8.92499V17.85C21.0731 18.4338 20.9371 19.0077 20.6936 19.5387C20.4501 20.0696 20.1039 20.5472 19.675 20.9437C19.2457 21.3422 18.7422 21.6521 18.1931 21.8558C17.6441 22.0596 17.0602 22.1532 16.475 22.1312H8.56875C7.97994 22.1581 7.3916 22.0686 6.83747 21.8677C6.28335 21.6667 5.77432 21.3584 5.33958 20.9604C4.90653 20.5628 4.55682 20.083 4.31076 19.549C4.0647 19.0151 3.9272 18.4375 3.90625 17.85V7.14791C3.92693 6.56413 4.06294 5.99022 4.30644 5.45924C4.54993 4.92827 4.8961 4.45073 5.325 4.05416C5.75425 3.65574 6.25779 3.3458 6.80686 3.14205C7.35593 2.93829 7.93976 2.84471 8.525 2.86666H14.4771C15.3857 2.86345 16.2628 3.19964 16.9365 3.80936L20.0198 6.64478C20.3488 6.9282 20.6145 7.2777 20.7995 7.67056C20.9845 8.06342 21.0848 8.49083 21.0938 8.92499Z" fill="#1814F3"/>
<path d="M8.70898 14.2521L10.6663 16.2104C10.7351 16.28 10.817 16.3353 10.9073 16.373C10.9976 16.4107 11.0945 16.4301 11.1923 16.4301C11.2902 16.4301 11.3871 16.4107 11.4774 16.373C11.5677 16.3353 11.6496 16.28 11.7184 16.2104L15.6632 12.2656" stroke="white" stroke-width="1.5625" stroke-linecap="round" stroke-linejoin="round"/>
<path d="M14.7764 2.86768V6.61351C14.7764 7.1208 14.9785 7.6083 15.3389 7.96768C15.7002 8.32744 16.1894 8.52933 16.6993 8.52913H20.9962" stroke="white" stroke-width="1.5625" stroke-linecap="round" stroke-linejoin="round"/>
</svg>
