<svg width="26" height="26" viewBox="0 0 26 26" fill="none" xmlns="http://www.w3.org/2000/svg">
<path d="M15.0833 8.83341V6.75008C15.0833 6.19755 14.8638 5.66764 14.4731 5.27694C14.0824 4.88624 13.5525 4.66675 13 4.66675H5.70833C5.1558 4.66675 4.62589 4.88624 4.23519 5.27694C3.84449 5.66764 3.625 6.19755 3.625 6.75008V19.2501C3.625 19.8026 3.84449 20.3325 4.23519 20.7232C4.62589 21.1139 5.1558 21.3334 5.70833 21.3334H13C13.5525 21.3334 14.0824 21.1139 14.4731 20.7232C14.8638 20.3325 15.0833 19.8026 15.0833 19.2501V17.1667" fill="#B1B1B1"/>
<path d="M9.875 13H22.375M22.375 13L19.25 9.875M22.375 13L19.25 16.125" stroke="white" stroke-width="2.08333" stroke-linecap="round" stroke-linejoin="round"/>
<path d="M15.083 13H21.8538M21.8538 13L18.7288 9.875M21.8538 13L18.7288 16.125" stroke="#B1B1B1" stroke-width="2.08333" stroke-linecap="round" stroke-linejoin="round"/>
<path d="M8.83301 11.9583C8.25771 11.9583 7.79134 12.4247 7.79134 13C7.79134 13.5753 8.25771 14.0417 8.83301 14.0417L8.83301 11.9583ZM15.083 11.9583L8.83301 11.9583L8.83301 14.0417L15.083 14.0417L15.083 11.9583Z" fill="white"/>
</svg>
