<svg width="21" height="20" viewBox="0 0 21 20" fill="none" xmlns="http://www.w3.org/2000/svg">
<path d="M5.49967 16.6667C5.04134 16.6667 4.64912 16.5036 4.32301 16.1775C3.9969 15.8514 3.83356 15.4589 3.83301 15V13.3333C3.83301 13.0972 3.91301 12.8995 4.07301 12.74C4.23301 12.5806 4.43079 12.5006 4.66634 12.5C4.9019 12.4995 5.09995 12.5795 5.26051 12.74C5.42106 12.9006 5.50079 13.0983 5.49967 13.3333V15H15.4997V13.3333C15.4997 13.0972 15.5797 12.8995 15.7397 12.74C15.8997 12.5806 16.0975 12.5006 16.333 12.5C16.5686 12.4995 16.7666 12.5795 16.9272 12.74C17.0877 12.9006 17.1675 13.0983 17.1663 13.3333V15C17.1663 15.4583 17.0033 15.8508 16.6772 16.1775C16.3511 16.5042 15.9586 16.6672 15.4997 16.6667H5.49967ZM9.66634 6.54168L8.10384 8.10418C7.93717 8.27085 7.7394 8.35085 7.51051 8.34418C7.28162 8.33751 7.08356 8.25057 6.91634 8.08335C6.76356 7.91668 6.68356 7.72223 6.67634 7.50001C6.66912 7.27779 6.74912 7.08335 6.91634 6.91668L9.91634 3.91668C9.99967 3.83335 10.09 3.77446 10.1872 3.74001C10.2844 3.70557 10.3886 3.68807 10.4997 3.68751C10.6108 3.68696 10.715 3.70446 10.8122 3.74001C10.9094 3.77557 10.9997 3.83446 11.083 3.91668L14.083 6.91668C14.2497 7.08335 14.3297 7.27779 14.323 7.50001C14.3163 7.72223 14.2363 7.91668 14.083 8.08335C13.9163 8.25001 13.7186 8.33696 13.4897 8.34418C13.2608 8.3514 13.0627 8.2714 12.8955 8.10418L11.333 6.54168V12.5C11.333 12.7361 11.253 12.9342 11.093 13.0942C10.933 13.2542 10.7352 13.3339 10.4997 13.3333C10.2641 13.3328 10.0663 13.2528 9.90634 13.0933C9.74634 12.9339 9.66634 12.7361 9.66634 12.5V6.54168Z" fill="white"/>
</svg>
