<svg width="21" height="20" viewBox="0 0 21 20" fill="none" xmlns="http://www.w3.org/2000/svg">
<path d="M17.375 7.13994V14.2799C17.3585 14.747 17.2496 15.2061 17.0548 15.6309C16.8601 16.0557 16.5831 16.4377 16.24 16.7549C15.8966 17.0737 15.4938 17.3216 15.0545 17.4846C14.6153 17.6476 14.1482 17.7225 13.68 17.7049H7.355C6.88395 17.7265 6.41328 17.6548 5.96998 17.4941C5.52668 17.3333 5.11946 17.0867 4.77167 16.7683C4.42522 16.4502 4.14545 16.0664 3.94861 15.6392C3.75176 15.212 3.64176 14.75 3.625 14.2799V5.71828C3.64155 5.25125 3.75035 4.79212 3.94515 4.36734C4.13995 3.94257 4.41688 3.56054 4.76 3.24328C5.1034 2.92454 5.50623 2.67659 5.94549 2.51359C6.38474 2.35059 6.85181 2.27572 7.32 2.29328H12.0817C12.8086 2.29071 13.5102 2.55966 14.0492 3.04744L16.5158 5.31578C16.779 5.54251 16.9916 5.82211 17.1396 6.1364C17.2876 6.45068 17.3678 6.79261 17.375 7.13994Z" stroke="white" stroke-width="1.25" stroke-linecap="round" stroke-linejoin="round"/>
<path d="M7.4668 11.4017L9.03263 12.9683C9.08766 13.024 9.15319 13.0682 9.22543 13.0984C9.29767 13.1286 9.37518 13.1441 9.45346 13.1441C9.53175 13.1441 9.60926 13.1286 9.6815 13.0984C9.75374 13.0682 9.81927 13.024 9.8743 12.9683L13.0301 9.8125" stroke="white" stroke-width="1.25" stroke-linecap="round" stroke-linejoin="round"/>
<path d="M12.3213 2.29419V5.29086C12.3213 5.69669 12.483 6.08669 12.7713 6.37419C13.0604 6.662 13.4517 6.82351 13.8596 6.82336H17.2971" stroke="white" stroke-width="1.25" stroke-linecap="round" stroke-linejoin="round"/>
</svg>
