<svg width="25" height="25" viewBox="0 0 25 25" fill="none" xmlns="http://www.w3.org/2000/svg">
<g clip-path="url(#clip0_245_57)">
<path d="M20.3198 15.8028V11.2102C20.3198 7.26339 20.3198 5.29183 19.1072 4.06547C17.8946 2.84003 15.9424 2.84003 12.0398 2.84003C8.13713 2.84003 6.18489 2.84003 4.97233 4.06547C3.75977 5.29091 3.75977 7.26523 3.75977 11.2102V15.8037C3.75977 18.6521 3.75977 20.0771 4.43505 20.6991C4.75705 20.9962 5.16369 21.183 5.59701 21.2327C6.50505 21.3366 7.56581 20.3982 9.68641 18.5223C10.6248 17.6934 11.0931 17.2785 11.635 17.1699C11.9018 17.1147 12.1778 17.1147 12.4446 17.1699C12.9874 17.2785 13.4556 17.6934 14.3931 18.5223C16.5137 20.3982 17.5745 21.3366 18.4825 21.2317C18.9149 21.183 19.3225 20.9962 19.6445 20.6991C20.3198 20.0771 20.3198 18.6521 20.3198 15.8028Z" stroke="#B1B1B1" stroke-width="1.38"/>
<path d="M14.7993 6.52002H9.2793H14.7993Z" fill="#B1B1B1"/>
<path d="M14.7993 6.52002H9.2793" stroke="#B1B1B1" stroke-width="1.38" stroke-linecap="round"/>
</g>
<defs>
<clipPath id="clip0_245_57">
<rect width="23" height="23" fill="white" transform="translate(1 1)"/>
</clipPath>
</defs>
</svg>
