<svg width="25" height="25" viewBox="0 0 25 25" fill="none" xmlns="http://www.w3.org/2000/svg">
<path fill-rule="evenodd" clip-rule="evenodd" d="M3.125 7.29167C3.125 7.0154 3.23475 6.75045 3.4301 6.5551C3.62545 6.35975 3.8904 6.25 4.16667 6.25H20.8333C21.1096 6.25 21.3746 6.35975 21.5699 6.5551C21.7653 6.75045 21.875 7.0154 21.875 7.29167C21.875 7.56793 21.7653 7.83289 21.5699 8.02824C21.3746 8.22359 21.1096 8.33333 20.8333 8.33333H4.16667C3.8904 8.33333 3.62545 8.22359 3.4301 8.02824C3.23475 7.83289 3.125 7.56793 3.125 7.29167ZM5.20833 11.9792C5.20833 11.7029 5.31808 11.4379 5.51343 11.2426C5.70878 11.0472 5.97373 10.9375 6.25 10.9375H18.75C19.0263 10.9375 19.2912 11.0472 19.4866 11.2426C19.6819 11.4379 19.7917 11.7029 19.7917 11.9792C19.7917 12.2554 19.6819 12.5204 19.4866 12.7157C19.2912 12.9111 19.0263 13.0208 18.75 13.0208H6.25C5.97373 13.0208 5.70878 12.9111 5.51343 12.7157C5.31808 12.5204 5.20833 12.2554 5.20833 11.9792ZM8.33333 16.6667C8.33333 16.3904 8.44308 16.1254 8.63843 15.9301C8.83378 15.7347 9.09873 15.625 9.375 15.625H15.625C15.9013 15.625 16.1662 15.7347 16.3616 15.9301C16.5569 16.1254 16.6667 16.3904 16.6667 16.6667C16.6667 16.9429 16.5569 17.2079 16.3616 17.4032C16.1662 17.5986 15.9013 17.7083 15.625 17.7083H9.375C9.09873 17.7083 8.83378 17.5986 8.63843 17.4032C8.44308 17.2079 8.33333 16.9429 8.33333 16.6667Z" fill="#718EBF"/>
</svg>
