<svg width="18" height="16" viewBox="0 0 18 16" fill="none" xmlns="http://www.w3.org/2000/svg">
<path d="M9.41699 14.6666H7.75033C4.61783 14.6666 3.05199 14.6666 2.00616 13.8416C1.83996 13.7099 1.68549 13.5641 1.54449 13.4058C0.666992 12.4224 0.666992 10.9474 0.666992 7.99992C0.666992 5.05242 0.666992 3.57825 1.54449 2.59409C1.68505 2.43631 1.83894 2.29131 2.00616 2.15909C3.05199 1.33325 4.61783 1.33325 7.75033 1.33325H10.2503C13.3828 1.33325 14.9487 1.33325 15.9937 2.15825C16.1614 2.29159 16.3156 2.43686 16.4562 2.59409C17.247 3.48075 17.3253 4.76492 17.3337 7.16659M0.666992 5.49992H17.3337M17.3337 9.66659L12.3337 14.6666M17.3337 14.6666L12.3337 9.66659" stroke="white" stroke-width="1.25" stroke-linecap="round" stroke-linejoin="round"/>
</svg>
