<svg width="20" height="20" viewBox="0 0 20 20" fill="none" xmlns="http://www.w3.org/2000/svg">
<path d="M7.50033 12.5H5.00033C4.76422 12.5 4.56644 12.42 4.407 12.26C4.24755 12.1 4.16755 11.9022 4.167 11.6667C4.16644 11.4311 4.24644 11.2334 4.407 11.0734C4.56755 10.9134 4.76533 10.8334 5.00033 10.8334H8.33366C8.56977 10.8334 8.76783 10.9134 8.92783 11.0734C9.08783 11.2334 9.16755 11.4311 9.167 11.6667V15C9.167 15.2361 9.08699 15.4342 8.92699 15.5942C8.76699 15.7542 8.56922 15.8339 8.33366 15.8334C8.09811 15.8328 7.90033 15.7528 7.74033 15.5934C7.58033 15.4339 7.50033 15.2361 7.50033 15V12.5ZM12.5003 7.50002H15.0003C15.2364 7.50002 15.4345 7.58002 15.5945 7.74002C15.7545 7.90002 15.8342 8.0978 15.8337 8.33336C15.8331 8.56891 15.7531 8.76697 15.5937 8.92752C15.4342 9.08808 15.2364 9.1678 15.0003 9.16669H11.667C11.4309 9.16669 11.2331 9.08669 11.0737 8.92669C10.9142 8.76669 10.8342 8.56891 10.8337 8.33336V5.00002C10.8337 4.76391 10.9137 4.56613 11.0737 4.40669C11.2337 4.24725 11.4314 4.16725 11.667 4.16669C11.9026 4.16613 12.1006 4.24613 12.2612 4.40669C12.4217 4.56725 12.5014 4.76502 12.5003 5.00002V7.50002Z" fill="#343C6A"/>
</svg>
