<svg width="25" height="25" viewBox="0 0 25 25" fill="none" xmlns="http://www.w3.org/2000/svg">
<path fill-rule="evenodd" clip-rule="evenodd" d="M11.7316 23.0563C11.7316 23.0563 4.16699 16.6854 4.16699 10.4167C4.16699 8.20654 5.04497 6.08692 6.60777 4.52412C8.17057 2.96132 10.2902 2.08334 12.5003 2.08334C14.7105 2.08334 16.8301 2.96132 18.3929 4.52412C19.9557 6.08692 20.8337 8.20654 20.8337 10.4167C20.8337 16.6854 13.2691 23.0563 13.2691 23.0563C12.8482 23.4438 12.1555 23.4396 11.7316 23.0563ZM12.5003 14.0625C12.9791 14.0625 13.4532 13.9682 13.8955 13.785C14.3379 13.6018 14.7398 13.3332 15.0783 12.9947C15.4169 12.6561 15.6854 12.2542 15.8686 11.8119C16.0519 11.3695 16.1462 10.8955 16.1462 10.4167C16.1462 9.9379 16.0519 9.46381 15.8686 9.02148C15.6854 8.57914 15.4169 8.17723 15.0783 7.83868C14.7398 7.50014 14.3379 7.23159 13.8955 7.04837C13.4532 6.86515 12.9791 6.77084 12.5003 6.77084C11.5334 6.77084 10.6061 7.15496 9.92233 7.83868C9.23861 8.52241 8.85449 9.44974 8.85449 10.4167C8.85449 11.3836 9.23861 12.3109 9.92233 12.9947C10.6061 13.6784 11.5334 14.0625 12.5003 14.0625Z" fill="#343C6A"/>
</svg>
