<svg width="36" height="36" viewBox="0 0 36 36" fill="none" xmlns="http://www.w3.org/2000/svg">
<path d="M16.5105 31.5H14.4075C9.03 31.5 6.342 31.5 4.671 29.7975C3 28.095 3 25.3545 3 19.875C3 14.3955 3 11.655 4.671 9.9525C6.342 8.25 9.03 8.25 14.4075 8.25H20.112C25.4895 8.25 28.179 8.25 29.85 9.9525C31.1355 11.262 31.431 13.1865 31.5 16.5" stroke="#343C6A" stroke-width="3" stroke-linecap="round" stroke-linejoin="round"/>
<path d="M30.0255 30.0345L33 33M24 6.75L23.85 6.285C23.1075 3.975 22.737 2.82 21.8535 2.16C20.9685 1.5 19.7955 1.5 17.445 1.5H17.0505C14.703 1.5 13.5285 1.5 12.645 2.16C11.76 2.82 11.3895 3.975 10.647 6.285L10.5 6.75M31.5795 26.289C31.5913 25.5868 31.4633 24.8894 31.2027 24.2372C30.9422 23.5851 30.5545 22.9913 30.0621 22.4906C29.5697 21.9899 28.9826 21.5922 28.3349 21.3207C27.6873 21.0492 26.992 20.9094 26.2898 20.9094C25.5875 20.9094 24.8923 21.0492 24.2446 21.3207C23.597 21.5922 23.0098 21.9899 22.5175 22.4906C22.0251 22.9913 21.6373 23.5851 21.3768 24.2372C21.1163 24.8894 20.9882 25.5868 21 26.289C21.0234 27.6765 21.591 28.9993 22.5805 29.9722C23.5699 30.9452 24.9021 31.4904 26.2898 31.4904C27.6775 31.4904 29.0096 30.9452 29.9991 29.9722C30.9886 28.9993 31.5562 27.6765 31.5795 26.289Z" stroke="#343C6A" stroke-width="3" stroke-linecap="round" stroke-linejoin="round"/>
</svg>
